<?xml version="1.0" encoding="utf-8"?>
<!-- Generator: Adobe Illustrator 21.1.0, SVG Export Plug-In . SVG Version: 6.00 Build 0)  -->
<!DOCTYPE svg PUBLIC "-//W3C//DTD SVG 1.1//EN" "http://www.w3.org/Graphics/SVG/1.1/DTD/svg11.dtd">
<svg version="1.1" id="Layer_1" xmlns:sketch="http://www.bohemiancoding.com/sketch/ns"
	 xmlns="http://www.w3.org/2000/svg" xmlns:xlink="http://www.w3.org/1999/xlink" x="0px" y="0px" viewBox="0 0 150 60"
	 style="enable-background:new 0 0 150 60;" xml:space="preserve">
<g>
	<path id="_Compound_Path_" d="M51,59.9v-4.1c0.1-1.3-0.8-2.5-2.1-2.6c-0.1,0-0.2,0-0.4,0c-0.9,0-1.8,0.4-2.3,1.2
		c-0.5-0.8-1.3-1.2-2.2-1.2c-0.8,0-1.5,0.3-2,1v-0.8h-1.3v6.5h1.3v-3.7c-0.1-0.8,0.5-1.6,1.3-1.7c0.1,0,0.2,0,0.3,0
		c1,0,1.5,0.6,1.5,1.7v3.7h1.3v-3.7c-0.1-0.8,0.5-1.6,1.3-1.7c0.1,0,0.2,0,0.3,0c1,0,1.5,0.6,1.5,1.7v3.7H51z M72.3,53.4h-2.4v-2
		h-1.3v2h-1.4v1.2h1.4v3.1c0,1.5,0.5,2.4,2.2,2.4c0.6,0,1.2-0.2,1.8-0.5l-0.4-1.2c-0.4,0.2-0.8,0.3-1.2,0.3c-0.5,0-1-0.3-1-0.9
		c0-0.1,0-0.1,0-0.2v-3.1h2.4V53.4z M84.4,53.2c-0.7,0-1.4,0.3-1.8,1v-0.8h-1.3v6.5h1.3v-3.7c0-1.1,0.5-1.8,1.4-1.8
		c0.3,0,0.6,0.1,0.9,0.1l0.4-1.2C85,53.3,84.7,53.2,84.4,53.2z M66.1,53.9c-0.8-0.5-1.7-0.7-2.7-0.7c-1.6,0-2.7,0.7-2.7,2
		c0,1.1,0.7,1.7,2.2,1.9l0.7,0.1c0.7,0.1,1.2,0.4,1.2,0.7c0,0.5-0.5,0.8-1.6,0.8c-0.8,0-1.5-0.2-2.2-0.7l-0.7,1
		c0.8,0.5,1.8,0.8,2.8,0.8c1.9,0,2.9-0.9,2.9-2.1s-0.8-1.7-2.2-1.9l-0.7-0.1c-0.6-0.1-1.2-0.3-1.2-0.7c0-0.4,0.5-0.8,1.3-0.8
		c0.7,0,1.4,0.2,2,0.5L66.1,53.9z M85.9,56.6c-0.1,1.8,1.2,3.3,3,3.4c0.1,0,0.3,0,0.4,0c0.8,0,1.7-0.2,2.3-0.7l-0.7-1
		c-0.5,0.4-1.1,0.6-1.7,0.6c-1.2-0.1-2.1-1.1-2-2.3c0.1-1.1,0.9-1.9,2-2c0.6,0,1.2,0.2,1.7,0.6l0.7-1c-0.7-0.5-1.5-0.8-2.3-0.7
		c-1.7-0.2-3.2,1-3.4,2.7C85.8,56.2,85.8,56.4,85.9,56.6z M76.7,53.2c-1.9,0-3.2,1.4-3.2,3.4c-0.1,1.8,1.2,3.3,3,3.4
		c0.1,0,0.2,0,0.3,0c1,0,1.9-0.3,2.7-0.9l-0.7-1c-0.5,0.4-1.2,0.7-1.9,0.7c-1,0-1.9-0.7-2-1.7h4.8v-0.5
		C79.7,54.6,78.5,53.2,76.7,53.2z M76.7,54.4c0.9,0,1.7,0.7,1.7,1.5c0,0,0,0.1,0,0.1h-3.5C74.9,55.1,75.7,54.4,76.7,54.4z
		 M59.1,56.6v-3.3h-1.3v0.8c-0.5-0.6-1.3-1-2.1-1c-1.9,0-3.4,1.5-3.4,3.4s1.5,3.4,3.4,3.4c0.8,0,1.6-0.3,2.1-1v0.8h1.3V56.6z
		 M53.8,56.6c0.1-1.1,1-2,2.2-1.9c1.1,0.1,2,1,1.9,2.2c-0.1,1.1-1,1.9-2,1.9c-1.1,0-2-0.8-2-1.9C53.7,56.8,53.7,56.7,53.8,56.6z
		 M104,53.2c-0.7,0-1.4,0.3-1.8,1v-0.8h-1.3v6.5h1.3v-3.7c0-1.1,0.5-1.8,1.4-1.8c0.3,0,0.6,0.1,0.9,0.1l0.4-1.2
		C104.6,53.3,104.3,53.2,104,53.2z M99,56.6v-3.3h-1.3v0.8c-0.5-0.6-1.3-1-2.1-1c-1.9,0-3.4,1.5-3.4,3.4s1.5,3.4,3.4,3.4
		c0.8,0,1.6-0.3,2.1-1v0.8H99V56.6z M93.7,56.6c0.1-1.1,1-2,2.2-1.9c1.1,0.1,2,1,1.9,2.2c-0.1,1.1-1,1.9-2,1.9
		C94.5,58.9,93.7,57.8,93.7,56.6z M112.2,56.6v-5.8h-1.3v3.4c-0.5-0.6-1.3-1-2.1-1c-1.9,0-3.4,1.5-3.4,3.4s1.5,3.4,3.4,3.4
		c0.8,0,1.6-0.3,2.1-1v0.8h1.3V56.6z M106.9,56.6c0.1-1.1,1-2,2.2-1.9c1.1,0.1,2,1,1.9,2.2c-0.1,1.1-1,1.9-2,1.9c-1.1,0-2-0.8-2-1.9
		C106.9,56.8,106.9,56.7,106.9,56.6z"/>
	<path d="M74.1,42.3c-5.4-4.9-8.5-11.8-8.5-19.2c0-7.4,3.1-14.3,8.5-19.2c-3.8-2.6-8.3-4-12.9-4C54.1,0,47.4,3.2,43,8.8
		c-7.9,10-6.1,24.6,3.9,32.5c4.1,3.2,9.1,4.9,14.3,4.9h0h0C65.8,46.2,70.4,44.8,74.1,42.3z"/>
	<path d="M114.6,23.1c0-5.1-1.8-10.2-4.9-14.2C105.3,3.2,98.6,0,91.5,0h0c-4.6,0-9.1,1.4-12.9,3.9c1,1,2,2,2.9,3.1
		c8.5,10.7,7.1,26.2-2.9,35.2c3.8,2.5,8.3,3.9,12.9,3.9C104.2,46.2,114.6,35.8,114.6,23.1z"/>
	<path d="M80.4,7.9c-1.2-1.5-2.5-2.8-4-4h-0.1C70.4,8.5,67,15.6,67,23.1c0,7.5,3.4,14.6,9.3,19.2h0.1C87,33.9,88.8,18.5,80.4,7.9z"
		/>
</g>
</svg>
