<svg xmlns="http://www.w3.org/2000/svg" xmlns:xlink="http://www.w3.org/1999/xlink" width="780" height="5772" viewBox="0 0 780 5772"><svg width="752" height="471" viewBox="0 0 752 471" id="amex"><title>Slice 1</title><path fill="#2557D6" d="M555 131l-15 35h29l-14-35zm-168 21c3-1 4-4 4-8s-1-7-4-8-6-1-10-1h-26v19h26c4 0 7 0 10-2zM54 131l-14 35h29l-15-35zm669 224h-41v-19h40c4 0 7 0 9-2 1-1 2-3 2-6 0-2-1-4-2-5-2-2-4-2-8-2-19-1-44 0-44-28 0-12 8-26 30-26h42v-17h-39c-12 0-20 2-26 7v-7h-58c-9 0-20 2-25 7v-7H500v7c-9-6-22-7-29-7h-68v7c-6-6-21-7-30-7h-76l-17 18-16-18H150v122h111l18-19 17 19h69v-28h7c9 0 20-1 29-5v33h57v-32h3c3 0 4 1 4 4v28h172c11 0 22-2 29-8v8h54c12 0 23-1 31-5v-23c-5 7-15 11-28 11zm-350-29h-27v30h-41l-26-29-27 29h-83v-88h85l26 29 27-29h67c17 0 35 4 35 29 0 24-18 29-36 29zm126-4c3 4 4 8 4 16v18h-21v-11c0-6 0-14-4-18-3-3-8-4-15-4h-23v33h-21v-88h49c10 0 18 0 25 4s11 9 11 19c0 14-9 22-15 24 5 1 9 5 10 7zm87-36h-49v16h48v18h-48v17h49v19h-70v-88h70v18zm55 70h-41v-19h41c4 0 6-1 8-2 2-2 3-4 3-6 0-3-1-5-3-6s-4-2-7-2c-20-1-45 1-45-27 0-13 8-26 30-26h43v18h-39c-4 0-6 1-9 2-2 1-3 4-3 6 0 4 2 6 5 7 2 1 4 1 8 1h11c12 0 20 2 25 7 4 4 6 10 6 19 0 19-12 28-33 28zm110-12zm-274-57c-2-1-6-1-10-1h-26v19h26c4 0 7 0 10-1 3-2 4-5 4-9s-1-6-4-8zm236-1c-4 0-7 0-9 1-2 2-3 4-3 7s2 5 5 6c2 1 4 1 8 1h11c12 1 20 3 24 8 1 0 2 1 2 2v-25h-38zm-340 0h-27v22h27c8 0 13-4 13-12 0-7-5-10-13-10zm-183 0v16h46v18h-46v17h52l24-26-23-25h-53zm135 61v-70l-32 34 32 36zM192 206v15h176v-32h3c3 0 3 0 3 4v28h91v-7c8 4 19 7 34 7h39l8-19h18l8 19h74v-18l11 18h59V99h-58v14l-8-14h-61v14l-7-14h-81c-14 0-26 1-36 7v-7h-56v7c-6-6-14-7-23-7H181l-14 31-14-31H88v14l-7-14H26L1 157v46l38-87h31l36 83v-83h34l28 59 25-59h35v87h-21v-68l-31 68h-19l-30-68v68H84l-8-19H32l-8 19H1v18h36l8-19h18l8 19h71v-15l6 15h37l7-15zm277-80c7-7 18-10 32-10h21v18h-20c-8 0-12 2-16 6-4 3-6 10-6 20 0 9 1 16 5 20s10 5 15 5h10l29-69h32l36 83v-83h32l37 61v-61h21v87h-29l-40-65v65h-43l-9-19h-43l-8 19h-25c-10 0-23-2-31-9-7-8-11-18-11-34 0-13 2-25 11-34zm-43-10h22v87h-22v-87zm-97 0h48c11 0 19 0 26 4s11 9 11 19c0 14-10 22-15 24 4 1 8 5 10 7 3 4 4 8 4 16v17h-22v-11c0-5 1-12-3-17-3-3-8-3-15-3h-23v31h-21v-87zm-85 0h70v18h-49v16h48v18h-48v17h49v18h-70v-87z"/></svg><svg width="750" height="471" viewBox="0 0 750 471" id="diners" y="471"><title>diners</title><path fill="#0079BE" d="M585 237c0-99-83-168-174-168h-78c-92 0-168 69-168 168 0 91 76 166 168 165h78c91 1 174-74 174-165z"/><path fill="#FFF" d="M333 83c-84 0-152 68-152 153 0 84 68 152 152 152s153-68 153-152c0-85-69-153-153-153z"/><path fill="#0079BE" d="M237 235c0-41 26-76 62-90v180c-36-14-62-49-62-90zm131 90V145c36 14 62 49 62 90s-26 76-62 90z"/></svg><svg width="780" height="501" viewBox="0 0 780 501" id="discover" y="942"><title>discover</title><path fill="#F47216" d="M409 198c31 0 56 23 56 52v1c0 29-25 52-56 52s-56-23-56-52v-1c0-29 25-52 56-52z"/><path d="M321 198c9 0 17 2 26 7v22c-9-8-16-11-26-11-19 0-34 15-34 34 0 20 14 34 35 34 9 0 16-3 25-10v22c-10 4-17 6-26 6-31 0-56-23-56-52s25-52 56-52zm-97 1c12 0 22 4 31 11l-10 13c-6-5-11-8-17-8-9 0-15 5-15 11s3 8 16 13c23 8 30 15 30 31 0 19-15 32-36 32-16 0-27-6-37-19l13-12c5 9 13 14 23 14 9 0 16-6 16-14 0-5-2-8-6-11-2-1-7-3-15-5-19-7-26-14-26-28 0-16 15-28 33-28zm235 2h22l29 66 28-66h22l-45 101h-11M158 201h20v99h-20m412-99h58v17h-38v22h36v17h-36v26h38v17h-58m115-42c16-3 24-13 24-28 0-18-13-29-37-29h-31v99h21v-40h3l28 40h25l-33-42zm-17-11h-6v-30h6c13 0 20 5 20 14 0 10-7 16-20 16zM92 201H62v99h30c16 0 27-3 37-11 12-10 19-24 19-38 0-30-23-50-56-50zm24 74c-7 6-15 8-28 8h-6v-65h6c13 0 21 2 28 8s11 15 11 24c0 10-4 19-11 25z"/></svg><svg width="780" height="501" viewBox="0 0 780 501" id="elo" y="1443"><title>amex-outline</title><path fill="#231F20" d="M374 33h32c0 1 1 0 1 1 27 1 52 8 76 20 65 34 104 87 116 160 1 5 0 9 2 13v34c-1 0-1 1-1 2-2 28-10 55-23 79-35 62-87 99-157 111-5 1-10 0-14 2h-33c-1-1-2-1-2-1-28-3-55-10-80-24-62-34-99-86-110-157-1-4 0-8-2-12v-35c1 0 1-1 1-2 1-9 2-19 4-28 20-85 90-149 176-161 5-1 9-1 14-2zM238 246c0 14 3 24 8 34 1 2 2 3 5 1 35-15 70-30 106-45 2-1 3-2 2-5-9-29-38-48-68-43-31 4-53 30-53 57zm133-25v56c0 12 4 21 15 25 6 3 12 5 17 8 2 0 3 0 3-2 3-6 6-13 8-19 1-2 1-2-1-3-5-2-10-5-16-7-2 0-2-2-2-4v-31-81c0-3-1-4-4-4-5 1-11 1-17 0-3 0-3 1-3 4v58zm109 89h10c24-4 45-24 50-47 1-2 1-3-1-3-7-2-14-3-21-4-2-1-2 0-3 2-1 3-2 6-3 8-8 15-24 21-40 17-3 0-4 0-5 3l-6 18c-1 3 0 4 2 4 6 1 11 3 17 2zm-40-107c-1 0-2 1-3 1-25 24-25 66 1 90 2 1 2 1 4 0 4-5 8-10 13-15 1-2 1-4-1-5-13-16-13-35 1-51 1-1 1-2 0-3-5-5-9-11-14-16l-1-1zm40-16c-6 0-12 1-18 3-2 0-2 1-2 3 3 7 5 13 7 20 1 1 2 2 3 1 19-6 39 5 45 25 1 2 2 2 4 2 6-1 12-3 18-4 3 0 4-2 3-4-7-27-32-46-60-46zM304 310c11 0 24-5 36-14 2-2 3-4 0-6-4-4-9-9-13-14-1-1-2-1-4 0-12 10-26 12-41 4-1-1-2 0-3 1-4 6-7 12-11 17-1 2-1 3 1 4 10 6 20 8 35 8z"/><path fill="#FCFCFC" d="M238 246c0-28 22-54 53-58 30-5 59 14 68 43 1 3 0 4-2 5-36 15-71 30-106 45-3 2-4 1-5-1-5-10-8-20-8-35zm89-21c-9-11-25-15-39-10s-24 18-24 33c0 4 0 4 3 3l42-18c6-3 12-5 18-8zm44-4v-58c0-3 0-4 3-4 6 1 12 1 17 0 3 0 4 1 4 4v112c0 2 0 4 2 4 6 2 11 5 16 7 2 1 2 1 1 3-2 6-5 13-8 19 0 2-1 2-3 2-5-3-11-5-17-8-11-4-15-13-15-25v-56z"/><path fill="#EC4324" d="M480 310c-6 1-11-1-17-2-2 0-3-1-2-4l6-18c1-3 2-3 5-3 16 4 32-2 40-17 1-2 2-5 3-8 1-2 1-3 3-2 7 1 14 2 21 4 2 0 2 1 1 3-5 23-26 43-50 47h-10z"/><path fill="#02A3DD" d="M440 203l1 1c5 5 9 11 14 16 1 1 1 2 0 3-14 16-14 35-1 51 2 1 2 3 1 5-5 5-9 10-13 15-2 1-2 1-4 0-26-24-26-66-1-90 1 0 2-1 3-1z"/><path fill="#FCEF03" d="M480 187c28 0 53 19 60 46 1 2 0 4-3 4-6 1-12 3-18 4-2 0-3 0-4-2-6-20-26-31-45-25-1 1-2 0-3-1-2-7-4-13-7-20 0-2 0-3 2-3 6-2 12-3 18-3z"/><path fill="#FCFCFC" d="M304 310c-15 0-25-2-35-8-2-1-2-2-1-4 4-5 7-11 11-17 1-1 2-2 3-1 15 8 29 6 41-4 2-1 3-1 4 0 4 5 9 10 13 14 3 2 2 4 0 6-12 9-25 14-36 14z"/><path fill="#231F20" d="M327 225c-6 3-12 5-18 8l-42 18c-3 1-3 1-3-3 0-15 10-28 24-33s30-1 39 10z"/></svg><svg width="752" height="471" viewBox="0 0 752 471" id="hipercard" y="1944"><title>Slice 1</title><g fill="#B2131B"><path d="M436 70h309c3 0 3 0 2 3-1 9-3 18-5 27l-18 87c-6 29-12 57-18 86-5 24-10 48-14 72-3 13-9 24-19 32-6 6-13 9-21 12-11 3-22 5-34 5H6c-3 0-3 0-3-3 3-13 6-26 8-39l18-87c7-32 13-65 20-97 3-16 7-33 10-49 5-23 19-36 41-44 10-3 21-5 33-5h303zm-50 142c1-3 1-7 2-10 0-2 0-2-1-2h-12c-1 0-1 1-1 2-2 14-5 29-7 43-2 10-4 21-6 31-1 2-1 3 1 2h13c1 1 1 0 2-1 1-13 3-25 5-38 2-7 3-14 8-20 4-5 9-9 16-8 2 0 5 0 7 1 1 0 1 0 2-1 0-3 1-6 1-9v-2c-3-1-6-2-9-2-7 1-13 4-17 10-1 1-2 3-4 4zm191 0c0-4 1-7 2-10 0-2-1-2-2-2h-10c-2 0-2 0-2 2-2 13-5 27-7 40-2 12-4 23-7 35 0 1 0 1 1 1h14c1 0 2 0 1-1 0-4 1-8 2-12 2-12 3-24 7-36 2-8 7-15 15-18h1c4 0 8-1 12 1 1 0 1 0 1-1 1-3 1-6 2-9 0-1 0-2-1-2-3-1-6-2-9-1-5 0-9 2-13 5-3 2-5 5-7 8zm-454 1H99c-1 0-1-1-1-2 3-14 5-27 8-41 0-1 0-2-1-2-6 1-11 1-16 0-1 0-1 1-2 2-1 10-3 20-4 30-3 18-6 35-10 53-1 7-3 15-4 23-1 2-1 2 2 2h14c1 0 2 0 2-1 1-6 2-11 3-17 2-11 4-23 6-35 0-1 0-1 2-1h46c2 0 2 0 2 2l-6 33c-1 6-2 12-4 18 0 1 0 2 2 1h15c1 0 2 0 2-1 2-13 4-26 6-38 4-23 8-46 13-69 0-2 0-2-2-2-4 1-9 0-14 0-2 0-2 0-3 3v3c-2 12-5 25-6 37-1 1-1 2-2 2h-24zm529 53c0 4 0 8-1 11 0 1 0 1 1 1h12c2 0 2 0 2-1v-4c2-23 6-45 10-67 3-13 5-25 8-38 0-1 0-2-2-2h-13c-1 0-1 0-2 2-1 10-3 21-4 32-1 1-1 1-2 1-6-2-11-3-17-3-7 0-14 2-21 5-7 4-12 10-16 17-5 9-8 18-8 29-1 6-1 13 2 19 2 4 4 7 8 9 8 4 16 4 24 3 5-1 10-3 14-7 2-2 3-4 5-7zm-424-58c0-3 1-4 1-6 0-1 0-2-1-2h-11c-1 0-2 1-2 2-1 8-3 17-4 25-3 20-7 40-10 59-2 9-4 17-5 26-1 1-1 2 1 1h13c1 1 2 0 2-1v-4c2-10 3-19 5-28 0-3 0-7 1-10 1 1 1 2 2 3 2 2 4 5 7 6 4 2 8 2 13 2 11-1 20-5 27-14 7-8 10-17 12-27 2-8 3-16 0-25-2-8-7-13-15-15-10-3-20-2-29 3-2 1-4 3-7 5zm297 59s0 1-1 1v9c0 1 0 2 1 1h11c1 1 2 0 2-1v-9c1-11 3-21 5-31 1-8 3-16 3-24 0-5-2-8-6-11-7-3-14-4-22-4s-17 2-25 2c-1 0-1 0-1 1-1 4-2 7-3 11 0 1 0 1 1 1 4-1 7-2 10-3 8-1 16-2 23 0 5 1 8 3 8 9 0 2-1 5-1 7 0 1-1 2-2 2h-15c-7 0-13 0-19 2-8 3-15 8-18 16-3 6-3 12-2 18 0 8 5 13 13 15 5 1 9 1 13 1 5 0 10-1 14-4 4-2 7-6 11-9zm-196-31h25c1 0 2 0 2-1 1-6 2-12 2-19 0-5-3-10-8-13-4-3-9-4-13-4-8-1-15-1-22 2-10 3-18 9-22 18-6 12-9 25-8 38 1 6 3 11 7 16 5 4 11 6 18 7 12 1 24-1 35-3 1 0 1-1 1-1 1-4 2-8 2-11 1-1 0-1-1-1-8 4-17 6-27 5-4 0-8-1-11-3-2-1-4-2-5-4-2-3-3-7-3-11 0-5 1-9 1-13 0-1 1-2 2-2h25zm135 28h-1c-8 4-16 6-25 5-3 0-5-1-7-2-5-4-7-9-7-15 0-7 1-15 3-23l6-12c5-6 12-8 19-8 6 0 13 1 20 3 1 1 1 0 1-1 1-3 1-6 2-10 0-1 0-1-1-1-8-1-16-2-24-1-5 0-10 0-14 2-12 4-19 13-23 24-4 9-6 19-5 29 0 5 0 9 3 13 2 6 7 10 13 12 12 3 25 1 37-2 0-1 1-1 1-2 1-3 2-7 2-11zm-271-64h-6c-2 0-2 1-3 3-1 13-4 26-6 39-2 12-4 23-7 35 0 1 0 1 1 1h14c1 0 1 0 1-1s1-3 1-4c3-24 8-48 13-72 0-1 0-1-1-1h-7zm13-26c0-3-1-5-4-6-1-1-3-1-5-1s-4 1-5 2c-4 4-4 8-4 13 0 1 1 2 2 3 2 2 9 2 11 0 3-3 5-6 5-11z"/><path d="M645 209c5-1 10 1 14 2 1 1 1 1 1 2-2 13-4 26-7 38-2 7-5 13-11 16-7 3-16 4-23-1-2-2-3-4-3-7-2-5-1-10-1-15 1-9 4-17 9-24 3-6 8-9 14-11h7zm-381 20c0 12-3 22-9 31-5 9-15 12-24 9-6-1-10-7-10-14 1-10 4-20 5-30 1-2 1-4 2-7 0-1 0-2 1-2 4-3 7-6 12-7 6-1 11 0 16 3 2 1 4 2 5 4 2 5 2 9 2 13zm253 8h8c2 0 3 0 2 3-1 7-3 14-7 20-2 4-5 6-9 8-3 1-6 2-9 2-2 0-4-1-6-1-3-1-6-3-7-7-1-2-1-5 0-8 1-5 3-9 6-12 3-2 5-3 8-4 4-2 9-1 14-1zm-193-10h-18c-1 0-1 0-1-1 2-5 3-9 6-12 4-3 7-4 11-5s8-1 12 0c6 1 10 5 9 12v5c0 1-1 1-2 1h-17zm253-15zm-191 0v0z"/></g></svg><svg width="750" height="471" viewBox="0 0 750 471" id="jcb" y="2415"><title>Slice 1</title><path fill="#FFF" d="M617 347c0 41-33 75-75 75H133V124c0-41 33-75 75-75h409v298z"/><linearGradient id="afa" gradientUnits="userSpaceOnUse" x1="824.742" y1="333.781" x2="825.742" y2="333.781" gradientTransform="matrix(132.8743 0 0 -323.0226 -109129.53 108054.602)"><stop offset="0" stop-color="#007B40"/><stop offset="1" stop-color="#55B330"/></linearGradient><path fill="url(#afa)" d="M484 242h35c12 3 15 20 4 26-7 4-16 2-23 2h-16v-28zm42-32c2 9-7 17-15 16h-27c0-9-1-18 0-26 11 0 22-1 32 0 5 1 9 5 10 10zm64-136c1 17 0 36 0 54v218c0 27-24 50-51 51h-81V287c29 0 58 1 88 0 14-1 29-10 29-25 2-15-12-25-26-27-5 0-5-2 0-2 13-3 23-16 19-30-3-14-18-19-31-19h-79c0-21-1-41 0-62 2-26 27-48 53-48h79z"/><linearGradient id="afb" gradientUnits="userSpaceOnUse" x1="824.755" y1="333.782" x2="825.748" y2="333.782" gradientTransform="matrix(133.4307 0 0 -323.0203 -109887.688 108053.82)"><stop offset="0" stop-color="#1D2970"/><stop offset="1" stop-color="#006DBA"/></linearGradient><path fill="url(#afb)" d="M160 125c0-27 25-51 52-51h80c0 91 1 182 0 273-1 26-25 49-51 50h-81V284c26 6 53 8 80 4 16-2 34-10 39-27 4-14 2-29 2-43v-34h-46c0 22 1 45 0 67-2 14-15 22-28 22-16 0-48-12-48-12 0-42 1-94 1-136z"/><linearGradient id="afc" gradientUnits="userSpaceOnUse" x1="824.742" y1="333.781" x2="825.741" y2="333.781" gradientTransform="matrix(132.9583 0 0 -323.0276 -109347.922 108056.266)"><stop offset="0" stop-color="#6E2B2F"/><stop offset="1" stop-color="#E30138"/></linearGradient><path fill="url(#afc)" d="M310 197c-3 1-1-8-1-11 0-21-1-43 0-64 2-27 27-49 54-48h78c0 91 1 182 0 273-1 26-25 49-51 50h-81V273c18 15 43 17 66 17 17 0 35-2 51-6v-23c-19 9-41 15-62 10-14-4-25-18-25-33-2-16 8-32 23-37 19-6 40-2 58 6 4 2 8 5 6-2v-18c-30-7-62-9-92-2-9 3-17 7-24 12z"/></svg><svg width="750" height="471" viewBox="0 0 750 471" id="maestro" y="2886"><title>Slice 1</title><path fill="#D9222A" d="M675 236c0 99-80 179-179 179-100 0-180-80-180-179 0-100 80-180 180-180 99 0 179 80 179 180"/><path fill="#0097D0" d="M357 349c-5-6-10-12-14-19h64c4-6 7-12 10-19h-84c-3-6-6-12-8-19h100c6-17 9-37 9-56 0-14-1-26-4-39H320c1-6 3-12 5-19h100c-2-6-5-12-8-19h-84c3-6 6-12 10-19h64c-4-6-9-13-14-19h-36c5-6 12-13 18-19-32-28-74-46-121-46-99 0-179 80-179 180 0 99 80 179 179 179 47 0 89-18 121-46 7-6 13-13 18-20h-36"/><path d="M651 336c0-4 3-6 6-6s6 2 6 6c0 3-3 5-6 5s-6-2-6-5zm6 4c2 0 4-2 4-4 0-3-2-5-4-5-3 0-5 2-5 5 0 2 2 4 5 4zm-1-2h-1v-5h3c1 1 1 1 1 2 0 0 0 1-1 1l1 2h-1l-1-2h-1v2zm0-3h2c0-1 0-1-1-1h-1v1zm-284-51c-7 2-15 3-22 3-25 0-39-11-39-33 0-26 17-44 40-44 18 0 30 10 30 27 0 5-1 10-3 18h-44c-2 11 6 15 19 15 8 0 15-1 23-4l-4 18zm-12-44c0-2 3-13-10-13-7 0-12 4-14 13h24zm28-5c0 9 5 16 17 21 9 3 10 4 10 8s-4 7-13 7c-6 0-13-1-20-3l-3 17c6 1 16 2 24 2 24 0 35-8 35-25 0-10-5-16-16-21-10-3-11-4-11-8s4-6 11-6c5 0 11 1 17 1l3-17c-6-1-15-1-20-1-26 0-35 11-34 25m-89 51h-18v-8c-6 6-13 9-24 9-12 0-20-8-20-20 0-18 14-29 39-29 3 0 6 0 10 1v-5c0-5-3-7-14-7-10 0-17 2-24 3l3-16c12-3 19-4 27-4 20 0 30 7 30 21 0 4-1 12-2 15-1 5-6 33-7 40zm-16-33c-2-1-4-1-5-1-13 0-19 4-19 12 0 4 3 7 8 7 9 0 16-7 16-18zm194 32c-6 1-11 2-16 2-11 0-18-6-18-16 0-3 3-16 3-20 1-4 11-57 11-57h22l-3 17h11l-3 19h-11s-7 31-7 33c0 4 3 6 8 6 2 0 4 0 6-1l-3 17m99-75c-16 0-29 6-36 18l6-17c-12-4-19 2-26 11l-2 2v-13h-21c-3 23-8 47-12 70l-1 5h23c2-12 3-21 5-29 5-21 13-27 25-24-3 6-4 13-4 20 0 19 10 34 35 34s43-13 43-44c0-19-12-33-35-33zm-6 59c-8 0-13-7-13-17 0-11 7-25 18-25 9 0 12 8 12 15 0 17-6 27-17 27zm-343 17h-23l13-70-30 70h-20l-4-70-14 70h-20l17-91h35l3 51 22-51h38l-17 91"/><path fill="#FFF" d="M613 274c0-3 3-5 6-5s6 2 6 5c0 4-3 6-6 6s-6-2-6-6zm6 5c2 0 4-2 4-5 0-2-2-4-4-4s-4 2-4 4 2 5 4 5zm-1-2h-1v-5h3c1 0 1 1 1 1 0 1 0 1-1 2l1 2h-1l-1-2h-1v2zm0-3h2v-1h-2v1zm-240 4c-8 2-15 3-23 3-25 0-38-11-38-33 0-25 17-44 39-44 19 0 30 11 30 27 0 5 0 11-2 18h-45c-1 11 6 16 20 16 7 0 15-2 23-5l-4 18zm-12-44c0-1 3-13-10-13-7 0-13 5-15 13h25zm27-5c0 10 5 16 17 21 10 4 11 5 11 8 0 5-4 7-13 7-7 0-13-1-20-3l-3 17c6 2 15 2 23 2 24 0 35-7 35-24 0-11-4-17-16-21-9-4-10-5-10-8 0-4 3-6 11-6 4 0 10 0 16 1l3-17c-6-1-15-2-20-2-25 0-34 11-34 25m-88 51h-19l1-8c-6 7-14 9-24 9-12 0-20-8-20-20 0-18 14-29 39-29 3 0 6 1 9 1 1-2 1-3 1-5 0-5-4-7-14-7-11 0-18 2-24 4l3-17c11-3 19-4 27-4 19 0 29 8 29 22 1 4-1 11-1 15-1 4-7 33-7 39zm-17-33h-5c-12 0-19 3-19 11 0 5 3 8 8 8 10 0 16-8 17-19zm195 32c-7 2-11 2-16 2-12 0-18-5-18-16 0-3 2-16 3-20 1-3 10-57 10-57h23l-4 18h12l-3 18h-12s-6 31-6 34c0 4 2 5 8 5h6l-3 16m110-42c0 16-7 26-18 26-8 0-12-6-12-16 0-12 7-25 18-25 9 0 12 7 12 15zm24 0c0-18-12-33-35-33-27 0-44 18-44 44 0 18 10 33 35 33 26 0 44-13 44-44zm-115-31c-2 23-7 46-11 69l-1 5h22c8-44 11-57 28-53l8-21c-12-4-19 2-26 11 0-4 2-8 1-11h-21m-270 74h-22l13-70-30 70h-21l-4-69-13 69h-20l17-91h35l2 57 24-57h37l-18 91"/></svg><svg width="750" height="471" viewBox="0 0 750 471" id="mastercard" y="3357"><title>Slice 1</title><path fill="#D9222A" d="M434 236c0 99-80 179-180 179-99 0-179-80-179-179 0-100 80-180 179-180 100 0 180 80 180 180"/><path fill="#EE9F2D" d="M495 56c-46 0-88 18-120 46-6 6-13 13-18 19h36c5 6 10 13 14 19h-64c-4 7-7 13-10 19h84c3 7 6 13 8 19H325c-2 7-4 13-5 19h110c3 13 4 25 4 38 0 20-3 40-9 58H325c2 6 5 12 8 19h84c-3 6-6 12-10 19h-64c4 6 9 13 14 19h36c-5 6-12 13-18 19 32 28 74 46 120 46 100 0 180-80 180-180 0-99-80-179-180-179"/><path d="M651 336c0-4 3-6 6-6s6 2 6 6c0 3-3 5-6 5s-6-2-6-5zm6 4c2 0 4-2 4-4 0-3-2-5-4-5-3 0-5 2-5 5 0 2 2 4 5 4zm-1-2h-1v-5h3c1 1 1 1 1 2 0 0 0 1-1 1l1 2h-1l-1-2h-1v2zm0-3h2c0-1 0-1-1-1h-1v1zm-443-80h-5c-11 0-16 4-16 11 0 5 2 8 7 8 8 0 13-8 14-19zm14 33h-16v-8c-5 7-12 9-20 9-11 0-18-8-18-20 0-18 12-28 34-28h8c1-2 1-3 1-5 0-4-4-6-13-6s-17 2-20 3c0-1 2-17 2-17 10-2 16-4 24-4 16 0 25 8 25 22 0 4 0 9-1 15-2 11-6 34-6 39zm-62 0h-20l11-70-25 70h-13l-2-69-11 69H86l16-91h28l1 51 18-51h31l-15 91m355-33h-5c-11 0-16 4-16 11 0 5 2 8 7 8 8 0 13-8 14-19zm14 33h-16v-8c-5 7-12 9-20 9-11 0-18-8-18-20 0-18 12-28 34-28h8c1-2 1-3 1-5 0-4-4-6-13-6s-17 2-20 3c0-1 2-17 2-17 10-2 16-4 24-4 16 0 25 8 25 22 0 4 0 9-1 15-2 11-6 34-6 39zm-221-1c-5 2-9 2-14 2-10 0-15-5-15-16 0-3 1-12 3-20 1-6 8-50 8-50h19l-2 11h12l-3 18h-11c-3 14-6 32-6 34 0 4 2 5 7 5h5l-3 16m60-1c-7 2-13 3-20 3-22 0-33-11-33-33 0-25 14-44 34-44 16 0 26 11 26 27 0 6-1 11-2 18h-39c-1 11 6 16 17 16 7 0 13-2 20-5l-3 18zm-11-43c0-2 2-14-9-14-6 0-11 5-13 14h22zm-124-5c0 9 5 15 15 20 8 4 9 5 9 8 0 5-3 7-11 7-6 0-11-1-17-3 0 0-3 16-3 17 5 1 8 2 20 2 21 0 30-7 30-24 0-10-4-16-13-21-8-4-9-5-9-8 0-4 3-6 9-6 4 0 9 0 14 1l3-17c-5-1-13-2-17-2-22 0-30 12-30 26m230-24c5 0 10 2 17 5l3-19c-3-2-13-8-21-8-13 0-24 6-32 17-11-4-16 4-22 11l-5 2c1-3 1-5 1-8h-18c-3 23-7 46-10 69l-1 5h19c4-21 5-35 6-44l8-4c1-4 4-5 11-5-1 5-1 10-1 15 0 24 13 39 34 39 5 0 10 0 17-2l4-21c-7 3-12 5-17 5-11 0-18-9-18-22 0-21 10-35 25-35"/><path fill="#FFF" d="M170 283h-19l11-70-25 70h-13l-2-70-12 70H92l15-91h28l1 56 19-56h30l-15 91"/><path d="M633 197l-5 26c-5-7-11-12-18-12-10 0-19 8-25 19-8-2-17-5-17-5 1-6 1-10 1-11h-18c-2 23-6 46-10 69l-1 5h20c2-17 4-31 6-42 7-6 10-12 17-11-3 7-5 15-5 24 0 18 9 30 23 30 8 0 13-2 18-8l-1 7h19l15-91h-19zm-25 74c-6 0-10-5-10-15 0-14 6-24 15-24 7 0 11 5 11 14 0 15-7 25-16 25z"/><path fill="#FFF" d="M218 250c-2 0-3-1-4-1-11 0-17 4-17 12 0 4 3 7 7 7 8 0 14-7 14-18zm14 33h-16l1-8c-5 6-12 9-21 9-10 0-18-8-18-20 0-18 13-29 35-29 2 0 5 0 8 1v-5c0-5-3-7-12-7-10 0-18 3-21 4 0-2 3-17 3-17 10-3 16-4 23-4 17 0 26 8 26 22 0 4-1 8-2 14-2 11-5 34-6 40zm262-89l-3 20c-7-4-12-5-18-5-14 0-25 14-25 34 0 14 7 22 19 22 4 0 10-1 16-4l-3 20c-7 2-12 3-18 3-20 0-34-15-34-39 0-33 18-56 44-56 9 0 19 4 22 5m31 56c-2 0-3-1-4-1-11 0-17 4-17 12 0 4 3 7 7 7 8 0 14-7 14-18zm14 33h-16l1-8c-5 6-12 9-21 9-10 0-18-8-18-20 0-18 13-29 35-29 2 0 5 0 8 1v-5c0-5-3-7-12-7-10 0-18 3-21 4 0-2 3-17 3-17 10-3 16-4 23-4 17 0 26 8 26 22 0 4-1 8-2 14-2 11-5 34-6 40zm-220-1c-5 1-10 2-14 2-10 0-15-6-15-16-1-4 1-12 2-20 1-7 9-51 9-51h19l-2 12h10l-3 17h-10c-2 15-5 32-5 34 0 4 2 6 6 6 3 0 4 0 6-1l-3 17m59-1c-6 2-13 3-20 3-21 0-33-11-33-33 1-25 15-44 34-44 16 0 27 10 27 27 0 5-1 11-3 18h-38c-2 11 5 15 16 15 7 0 14-1 21-4l-4 18zm-11-44c1-1 3-13-9-13-6 0-10 5-12 13h21zm-123-5c0 9 5 16 15 21 8 3 9 5 9 8 0 5-3 7-11 7-6 0-11-1-18-3 0 0-2 16-2 17 4 1 8 2 20 2 21 0 30-8 30-25 0-10-4-16-14-20-8-4-9-5-9-8 0-4 3-6 10-6 4 0 9 0 14 1l2-18c-5 0-12-1-17-1-21 0-29 11-29 25m399 51h-19l1-7c-5 6-11 8-18 8-14 0-24-12-24-31 0-24 15-45 32-45 8 0 13 3 19 10l4-26h19l-14 91zm-29-17c9 0 15-11 15-25 0-10-3-15-10-15-9 0-15 10-15 25 0 10 3 15 10 15zm-57-57c-3 23-7 46-10 69l-1 5h19c7-46 9-54 20-53 2-10 5-18 7-22-8-1-12 3-18 12 0-4 1-8 1-11h-18m-161 0c-2 23-6 46-10 69l-1 5h20c7-46 9-54 20-53 1-10 5-18 7-22-8-1-13 3-19 12 1-4 2-8 1-11h-18m255 68c0-3 3-6 6-6s6 3 6 6-3 6-6 6-6-3-6-6zm6 4c2 0 4-2 4-4s-2-4-4-4c-3 0-5 2-5 4s2 4 5 4zm-1-2h-1v-5h2s1 0 1 1c1 0 1 0 1 1s0 1-1 1l1 2h-1l-1-2h-1v2zm0-2h1v-1h1s0-1-1-1h-1v2z"/></svg><svg width="752" height="471" viewBox="0 0 752 471" id="meli" y="3828"><title>Slice 1</title><path fill="#FDE600" d="M113 213c36 8 72 16 105 32 4 2 8 5 11 7 1 1 2 1 1 3-6 19 9 38 29 36 2 0 2 0 3 2 4 13 15 22 28 23h1c5-1 8 2 11 6 8 9 18 14 30 11 2-1 3 0 3 1 11 20 34 24 51 10 1-1 2-1 4-1 6 4 14 7 22 7 10 1 20 0 26-10 1-1 2 0 3 0 13 3 28-4 33-16 2-4 4-4 8-4 12 0 21-6 28-16 2-3 3-7 3-11 0-2 1-2 3-2 10 1 18-2 25-9 8-7 9-19 5-28-2-3-1-3 1-4 35-14 71-25 108-34 2 0 3 0 3 2 1 27-7 52-21 74-16 24-37 42-61 57-32 20-67 33-103 40-27 6-53 9-80 9-53 1-104-7-154-26-28-12-55-27-78-48-18-17-34-37-42-62-6-15-8-31-6-48v-1z"/><path fill="#FEFEFE" d="M316 134c-8 8-15 15-22 23-2 2-4 5-7 7-5 6-5 13 1 18s12 7 19 8c14 2 27-1 38-9 9-7 18-15 27-21 7-4 13-8 21-9 8-2 15 0 21 4 10 5 18 12 26 19 31 26 61 52 91 78 3 3 5 6 6 10 2 9-5 17-15 18-6 1-11-1-15-5-13-11-25-22-38-33-1-1-3-3-5-3-1-1-2-1-3 0-2 1-1 3-1 4l3 3c11 12 22 23 34 34 4 5 7 10 5 16-4 13-23 17-32 8s-18-18-28-27c-2-1-3-2-5-2-1 0-2 0-3 1s-1 2 0 3c0 1 1 2 2 3 8 9 17 19 25 28 5 6 5 11-1 15-5 6-12 7-19 5-2-1-3-2-4-3-7-8-15-15-23-22-2-1-3-2-4-3-2 0-3 0-4 1s-1 3 0 4c0 1 1 1 1 2 7 8 14 15 20 22 3 3 3 5-1 6-5 3-11 4-17 2-5-1-9-2-13-4-2-1-2-2-1-3 7-20-4-40-25-44-2 0-5 1-6-1s-1-4-1-6c-1-14-11-24-25-26-4-1-9-1-13 1-1 0-2 0-3-2-7-13-28-18-42-9-2 1-3 1-4-1-11-10-26-11-38-1-1 0-1 1-3 0-16-11-35-18-54-24s-40-11-60-16c-6-2-6-2-4-8 6-23 18-42 34-59 6-7 13-13 19-18 2-2 4-2 6-1 24 9 48 17 74 23 17 3 34 3 51-3l15-3z"/><path fill="#FEFEFE" d="M406 109c11 0 28 4 45 12 23 11 46 17 71 17 24 1 46-5 68-13 4-2 7-3 11-5 1 0 2 0 3 1 21 18 38 40 48 67 1 4 2 9 3 13 1 3 0 3-2 4-18 4-35 9-53 14-20 7-41 14-60 23-2 0-4 0-5-1-32-28-64-56-97-83-5-4-10-8-16-11-15-11-31-11-47-2-11 6-21 15-30 22-4 2-7 5-10 7-10 7-20 7-31 5-1-1-2-1-3-1-7-3-7-4-2-10 11-12 21-24 34-35 19-17 38-24 73-24z"/><path fill="#FDE600" d="M593 112c-14 6-28 10-42 13-33 6-65 1-95-13-21-10-44-16-67-14-21 2-40 8-57 22-1 0-2 1-3 1-11 1-22 3-33 7-17 5-33 4-50 0-22-6-43-12-63-19 0-2 2-2 3-3 30-21 63-34 98-43 40-10 80-14 120-12 37 2 73 8 109 20 27 9 54 22 77 39 1 0 2 1 3 2z"/><path fill="#FEFEFE" d="M274 266c1-1 2-3 2-4 7-9 17-13 27-10 7 2 11 7 13 14v2c1 3 2 4 4 2 7-6 14-7 22-4 8 4 12 11 11 21 0 3-1 6-2 8 0 2-2 4 0 5 2 2 3 0 5 0 4-2 9-3 14-1 11 3 18 13 16 25-1 11-11 18-23 18-11 0-20-9-21-20 0-2 0-4-2-5-1 0-3 1-4 2-6 6-12 6-19 2-7-3-11-8-10-16 0-1 0-3-1-3-2-1-3 0-4 0-15 9-31-1-31-18v-5c0-2 0-3-1-3-1-1-2 0-3 1-9 8-24 4-27-8-3-10 2-19 12-22 9-2 19 4 21 13 0 2 0 3 1 6z"/><path fill="#313162" stroke="#313162" stroke-width="5" stroke-miterlimit="10" d="M113 213v1c-2 17 0 33 6 48 8 25 24 45 42 62 23 21 50 36 78 48 50 19 101 27 154 26 27 0 53-3 80-9 36-7 71-20 103-40 24-15 45-33 61-57 14-22 22-47 21-74 0-2-1-2-3-2-37 9-73 20-108 34-2 1-3 1-1 4 4 9 3 21-5 28-7 7-15 10-25 9-2 0-3 0-3 2 0 4-1 8-3 11-7 10-16 16-28 16-4 0-6 0-8 4-5 12-20 19-33 16-1 0-2-1-3 0-6 10-16 11-26 10-8 0-16-3-22-7-2 0-3 0-4 1-17 14-40 10-51-10 0-1-1-2-3-1-12 3-22-2-30-11-3-4-6-7-11-6h-1c-13-1-24-10-28-23-1-2-1-2-3-2-20 2-35-17-29-36 1-1 0-2-1-3-3-2-7-5-11-7-33-16-69-24-105-32zm203-79l-15 3c-17 6-34 6-51 3-26-6-50-14-74-23-2-1-4-1-6 1-6 5-13 11-19 18-16 17-28 36-34 59-2 6-2 6 4 8 20 5 41 10 60 16s38 13 54 24c2 1 2 0 3 0 12-10 27-9 38 1 1 2 2 2 4 1 14-8 35-4 42 9 1 2 2 2 3 2 4-2 9-2 13-1 14 2 24 12 25 26v6c2 2 5 1 7 1 20 4 32 24 25 44-1 1-1 2 1 3 4 2 8 3 13 4 6 2 12 1 17-2 4-1 4-3 1-6-6-7-13-14-20-22 0-1-1-1-1-2-1-1-1-3 0-4s2-1 4-1c1 1 2 2 4 3 8 7 16 14 23 22 1 1 2 2 4 3 7 2 14 1 19-5 6-4 6-9 1-15-8-9-17-19-25-28-1-1-2-2-2-3-1-1-1-2 0-3s2-1 3-1c2 0 3 1 5 2 10 9 19 18 28 27s28 5 32-8c2-6-1-11-5-16-12-11-23-22-34-34l-3-3c0-1-1-3 1-4 1-1 2-1 3 0 2 0 4 2 5 3 13 11 25 22 38 33 4 4 9 6 15 5 10-1 17-9 15-18-1-4-3-7-6-10-30-26-60-52-91-78-8-7-16-14-26-19-6-4-13-6-21-4-8 1-14 5-21 9-9 6-18 14-27 21-11 8-24 11-38 9-7-1-13-3-19-8s-6-12-1-18c3-2 5-5 7-7 7-8 14-15 22-23zm90-25c-35 0-54 7-73 24-13 11-23 23-34 35-5 6-5 7 2 10 1 0 2 0 3 1 11 2 21 2 31-5 3-2 6-5 10-7 9-7 19-16 30-22 16-9 32-9 47 2 6 3 11 7 16 11 33 27 65 55 97 83 1 1 3 1 5 1 19-9 40-16 60-23 18-5 35-10 53-14 2-1 3-1 2-4-1-4-2-9-3-13-10-27-27-49-48-67-1-1-2-1-3-1-4 2-7 3-11 5-22 8-44 14-68 13-25 0-48-6-71-17-17-8-34-12-45-12zm187 3c-1-1-2-2-3-2-23-17-50-30-77-39-36-12-72-18-109-20-40-2-80 2-120 12-35 9-68 22-98 43-1 1-3 1-3 3 20 7 41 13 63 19 17 4 33 5 50 0 11-4 22-6 33-7 1 0 2-1 3-1 17-14 36-20 57-22 23-2 46 4 67 14 30 14 62 19 95 13 14-3 28-7 42-13zM274 266c-1-3-1-4-1-6-2-9-12-15-21-13-10 3-15 12-12 22 3 12 18 16 27 8 1-1 2-2 3-1 1 0 1 1 1 3v5c0 17 16 27 31 18 1 0 2-1 4 0 1 0 1 2 1 3-1 8 3 13 10 16 7 4 13 4 19-2 1-1 3-2 4-2 2 1 2 3 2 5 1 11 10 20 21 20 12 0 22-7 23-18 2-12-5-22-16-25-5-2-10-1-14 1-2 0-3 2-5 0-2-1 0-3 0-5 1-2 2-5 2-8 1-10-3-17-11-21-8-3-15-2-22 4-2 2-3 1-4-2v-2c-2-7-6-12-13-14-10-3-20 1-27 10 0 1-1 3-2 4zm113 165c-47 0-92-6-135-20-35-12-68-29-95-55-26-24-44-52-52-87-6-33-6-65 8-96 11-25 28-44 48-61 30-26 66-43 104-55 34-10 69-16 105-17 55-2 109 6 160 26 33 12 63 29 88 53 23 21 40 46 48 77 3 14 3 28 3 43-1 43-18 79-48 110-27 29-61 47-98 61-28 9-56 15-85 18-18 2-35 3-51 3z"/></svg><svg width="780" height="501" viewBox="0 0 780 501" id="paypal" y="4299"><title>amex-outline</title><path fill="#003087" d="M168 170c-8-6-19-9-33-9H84c-4 0-6 2-7 6L55 301c0 1 0 2 1 3 1 2 2 2 3 2h25c4 0 7-2 7-6l6-36c0-2 1-3 3-4 1-1 2-2 4-2 2-1 4-1 6-1h6c3 1 4 1 5 1 19 0 33-6 44-16 11-11 16-25 16-44 0-13-4-22-13-28zm-27 40c-1 8-4 13-8 15-5 2-11 4-20 4h-11l6-35c0-2 2-4 4-4h6c9 0 16 2 19 4 4 3 6 8 4 16z"/><path fill="#009CDE" d="M721 161h-24c-3 0-4 1-5 4l-21 136v1c0 1 0 2 1 3s2 1 3 1h22c4 0 6-2 7-6l21-134c0-3-1-5-4-5z"/><path fill="#003087" d="M428 214c0-1 0-2-1-3s-2-2-3-2h-25c-3 0-4 1-6 4l-35 51-14-49c-1-4-4-6-7-6h-25c-1 0-2 1-3 2s-1 2-1 3c0 0 2 7 6 19 5 13 9 26 14 40 5 15 8 22 8 23-18 25-27 38-27 40s1 4 4 4h25c3 0 5-1 6-3l84-121v-2z"/><path fill="#009CDE" d="M663 209h-25c-3 0-5 4-6 11-5-9-16-13-31-13s-29 6-40 18c-11 11-16 25-16 41 0 13 4 23 11 31 8 8 18 11 30 11 7 0 13-1 20-4 6-2 11-6 15-10 0 0 0 1-1 3v4c0 3 1 5 4 5h23c4 0 6-2 7-6l13-85c0-2 0-3-1-4s-2-2-3-2zm-43 65c-5 5-12 8-20 8-6 0-11-2-15-5-4-4-6-9-6-15 0-8 3-15 8-20 5-6 12-9 20-9 6 0 11 2 15 6 5 3 7 8 7 15 0 8-3 14-9 20z"/><path fill="#003087" d="M291 209h-25c-3 0-5 4-5 11-6-9-16-13-31-13-16 0-29 6-40 18-11 11-17 25-17 41 0 13 4 23 11 31 8 8 18 11 31 11 6 0 12-1 19-4 6-2 11-6 15-10-1 3-1 5-1 7 0 3 1 5 4 5h23c4 0 6-2 7-6l13-85c1-2 0-3 0-4-1-1-2-2-4-2zm-42 65c-6 5-13 8-21 8-6 0-11-2-15-5-4-4-6-9-6-15 0-8 3-15 8-20 6-6 13-9 21-9 6 0 11 2 15 6 4 3 6 8 6 15 0 8-3 15-8 20z"/><path fill="#009CDE" d="M540 170c-8-6-19-9-33-9h-52c-4 0-7 2-7 6l-21 134c-1 1 0 2 1 3 1 2 2 2 3 2h27c2 0 4-1 5-4l6-38c0-2 1-3 2-4s3-2 5-2c2-1 4-1 6-1h6c2 1 4 1 4 1 19 0 34-6 45-16 10-11 16-25 16-44 0-13-5-22-13-28zm-33 54c-5 3-12 5-22 5h-11l6-35c0-3 2-4 4-4h6c5 0 9 1 12 1 2 0 5 2 8 4 2 2 4 6 4 10 0 9-3 15-7 19z"/></svg><svg id="real" viewBox="84 146 780 501" width="780" height="501" y="4800"><style>.st0{fill:#00958f}.st1{fill:#fec325}</style><title>amex-outline</title><path class="st0" d="M319 184c0-4 1-4 4-4h309c3 0 3 0 3 3v259c-51-49-102-98-153-148v307h-1l-11-11-148-141c-3-2-4-5-4-8"/><path class="st1" d="M482 601V294c51 50 102 99 153 148-1 3-4 4-6 7L485 598l-3 3z"/></svg><svg width="750" height="471" viewBox="0 0 750 471" id="visa" y="5301"><title>Slice 1</title><path fill="#0E4595" d="M278 334l34-196h53l-33 196h-54zm246-191c-10-4-27-9-48-9-52 0-89 27-90 65 0 28 27 44 47 53 21 10 28 16 28 25 0 13-17 19-32 19-22 0-33-3-50-11l-7-3-8 44c13 6 36 10 60 11 56 0 92-27 93-67 0-23-14-40-45-54-19-9-30-15-30-24 0-8 9-17 30-17 18 0 30 4 40 8l5 2 7-42m138-5h-42c-12 0-22 4-28 17l-79 179h56s9-24 11-29h69c1 7 6 29 6 29h50l-43-196zm-66 127c5-11 21-55 21-55 0 1 5-11 8-19l3 17s10 47 12 57h-44zM233 138l-52 134-6-27c-10-31-40-65-74-82l48 171h56l84-196h-56"/><path fill="#F2AE14" d="M132 138H46l-1 5c67 16 111 55 130 102l-19-90c-3-12-12-16-24-17"/></svg></svg>
